<?xml version="1.0" encoding="UTF-8" standalone="no"?>
<!DOCTYPE svg PUBLIC "-//W3C//DTD SVG 1.1//EN"
 "http://www.w3.org/Graphics/SVG/1.1/DTD/svg11.dtd">
<!-- Generated by graphviz version 2.40.1 (20161225.0304)
 -->
<!-- Title: dependencies Pages: 1 -->
<svg width="3670pt" height="284pt"
 viewBox="0.00 0.00 3670.00 284.00" xmlns="http://www.w3.org/2000/svg" xmlns:xlink="http://www.w3.org/1999/xlink">
<g id="graph0" class="graph" transform="scale(1 1) rotate(0) translate(4 280)">
<title>dependencies</title>
<polygon fill="#ffffff" stroke="transparent" points="-4,4 -4,-280 3666,-280 3666,4 -4,4"/>
<text text-anchor="start" x="1810.0091" y="-42.4" font-family="sans-serif" font-weight="bold" font-size="14.00" fill="#000000">Legend</text>
<polygon fill="#ffffb3" stroke="transparent" points="1597,-10 1597,-30 1617,-30 1617,-10 1597,-10"/>
<text text-anchor="start" x="1620.629" y="-15.4" font-family="sans-serif" font-size="14.00" fill="#000000"> &#160;Declarations</text>
<polygon fill="#8dd3c7" stroke="transparent" points="1710,-10 1710,-30 1730,-30 1730,-10 1710,-10"/>
<text text-anchor="start" x="1733.7251" y="-15.4" font-family="sans-serif" font-size="14.00" fill="#000000"> &#160;Module</text>
<polygon fill="#80b1d3" stroke="transparent" points="1796,-10 1796,-30 1816,-30 1816,-10 1796,-10"/>
<text text-anchor="start" x="1819.7812" y="-15.4" font-family="sans-serif" font-size="14.00" fill="#000000"> &#160;Bootstrap</text>
<polygon fill="#fdb462" stroke="transparent" points="1893,-10 1893,-30 1913,-30 1913,-10 1893,-10"/>
<text text-anchor="start" x="1916.6732" y="-15.4" font-family="sans-serif" font-size="14.00" fill="#000000"> &#160;Providers</text>
<polygon fill="#fb8072" stroke="transparent" points="1989,-10 1989,-30 2009,-30 2009,-10 1989,-10"/>
<text text-anchor="start" x="2012.7258" y="-15.4" font-family="sans-serif" font-size="14.00" fill="#000000"> &#160;Exports</text>
<g id="clust1" class="cluster">
<title>cluster_AppModule</title>
<polygon fill="none" stroke="#000000" stroke-dasharray="1,5" points="8,-70 8,-268 3654,-268 3654,-70 8,-70"/>
</g>
<g id="clust2" class="cluster">
<title>cluster_AppModule_declarations</title>
<polygon fill="none" stroke="#000000" points="2806,-78 2806,-130 3646,-130 3646,-78 2806,-78"/>
</g>
<g id="clust9" class="cluster">
<title>cluster_AppModule_imports</title>
<polygon fill="none" stroke="#000000" points="960,-78 960,-130 2798,-130 2798,-78 960,-78"/>
</g>
<g id="clust11" class="cluster">
<title>cluster_AppModule_bootstrap</title>
<polygon fill="none" stroke="#000000" points="2007,-208 2007,-260 2131,-260 2131,-208 2007,-208"/>
</g>
<g id="clust12" class="cluster">
<title>cluster_AppModule_providers</title>
<polygon fill="none" stroke="#000000" points="16,-78 16,-130 952,-130 952,-78 16,-78"/>
</g>
<!-- AppComponent -->
<g id="node1" class="node">
<title>AppComponent</title>
<polygon fill="#ffffb3" stroke="#000000" points="3637.9399,-122 3532.0601,-122 3532.0601,-86 3637.9399,-86 3637.9399,-122"/>
<text text-anchor="middle" x="3585" y="-99.8" font-family="Times,serif" font-size="14.00" fill="#000000">AppComponent</text>
</g>
<!-- AppModule -->
<g id="node7" class="node">
<title>AppModule</title>
<polygon fill="#8dd3c7" stroke="#000000" points="2110.6571,-187 2107.6571,-191 2086.6571,-191 2083.6571,-187 2027.3429,-187 2027.3429,-151 2110.6571,-151 2110.6571,-187"/>
<text text-anchor="middle" x="2069" y="-164.8" font-family="Times,serif" font-size="14.00" fill="#000000">AppModule</text>
</g>
<!-- AppComponent&#45;&gt;AppModule -->
<g id="edge1" class="edge">
<title>AppComponent&#45;&gt;AppModule</title>
<path fill="none" stroke="#000000" d="M3585,-122.1532C3585,-145.7566 3585,-184 3585,-184 3585,-184 2120.7313,-184 2120.7313,-184"/>
<polygon fill="#000000" stroke="#000000" points="2120.7313,-180.5001 2110.7313,-184 2120.7313,-187.5001 2120.7313,-180.5001"/>
</g>
<!-- NavBarComponent -->
<g id="node2" class="node">
<title>NavBarComponent</title>
<polygon fill="#ffffb3" stroke="#000000" points="3514.3655,-122 3389.6345,-122 3389.6345,-86 3514.3655,-86 3514.3655,-122"/>
<text text-anchor="middle" x="3452" y="-99.8" font-family="Times,serif" font-size="14.00" fill="#000000">NavBarComponent</text>
</g>
<!-- NavBarComponent&#45;&gt;AppModule -->
<g id="edge2" class="edge">
<title>NavBarComponent&#45;&gt;AppModule</title>
<path fill="none" stroke="#000000" d="M3452,-122.2479C3452,-145.0179 3452,-181 3452,-181 3452,-181 2120.7672,-181 2120.7672,-181"/>
<polygon fill="#000000" stroke="#000000" points="2120.7673,-177.5001 2110.7672,-181 2120.7672,-184.5001 2120.7673,-177.5001"/>
</g>
<!-- MainPageComponent -->
<g id="node3" class="node">
<title>MainPageComponent</title>
<polygon fill="#ffffb3" stroke="#000000" points="3372.094,-122 3233.906,-122 3233.906,-86 3372.094,-86 3372.094,-122"/>
<text text-anchor="middle" x="3303" y="-99.8" font-family="Times,serif" font-size="14.00" fill="#000000">MainPageComponent</text>
</g>
<!-- MainPageComponent&#45;&gt;AppModule -->
<g id="edge3" class="edge">
<title>MainPageComponent&#45;&gt;AppModule</title>
<path fill="none" stroke="#000000" d="M3303,-122.2921C3303,-144.2057 3303,-178 3303,-178 3303,-178 2120.7645,-178 2120.7645,-178"/>
<polygon fill="#000000" stroke="#000000" points="2120.7645,-174.5001 2110.7645,-178 2120.7644,-181.5001 2120.7645,-174.5001"/>
</g>
<!-- DetailViewComponent -->
<g id="node4" class="node">
<title>DetailViewComponent</title>
<polygon fill="#ffffb3" stroke="#000000" points="3215.8585,-122 3070.1415,-122 3070.1415,-86 3215.8585,-86 3215.8585,-122"/>
<text text-anchor="middle" x="3143" y="-99.8" font-family="Times,serif" font-size="14.00" fill="#000000">DetailViewComponent</text>
</g>
<!-- DetailViewComponent&#45;&gt;AppModule -->
<g id="edge4" class="edge">
<title>DetailViewComponent&#45;&gt;AppModule</title>
<path fill="none" stroke="#000000" d="M3143,-122.0267C3143,-142.7672 3143,-174 3143,-174 3143,-174 2120.7724,-174 2120.7724,-174"/>
<polygon fill="#000000" stroke="#000000" points="2120.7725,-170.5001 2110.7724,-174 2120.7724,-177.5001 2120.7725,-170.5001"/>
</g>
<!-- FilterComponent -->
<g id="node5" class="node">
<title>FilterComponent</title>
<polygon fill="#ffffb3" stroke="#000000" points="3051.6625,-122 2940.3375,-122 2940.3375,-86 3051.6625,-86 3051.6625,-122"/>
<text text-anchor="middle" x="2996" y="-99.8" font-family="Times,serif" font-size="14.00" fill="#000000">FilterComponent</text>
</g>
<!-- FilterComponent&#45;&gt;AppModule -->
<g id="edge5" class="edge">
<title>FilterComponent&#45;&gt;AppModule</title>
<path fill="none" stroke="#000000" d="M2996,-122.308C2996,-142.1455 2996,-171 2996,-171 2996,-171 2120.9356,-171 2120.9356,-171"/>
<polygon fill="#000000" stroke="#000000" points="2120.9357,-167.5001 2110.9356,-171 2120.9356,-174.5001 2120.9357,-167.5001"/>
</g>
<!-- CardComponent -->
<g id="node6" class="node">
<title>CardComponent</title>
<polygon fill="#ffffb3" stroke="#000000" points="2922.0452,-122 2813.9548,-122 2813.9548,-86 2922.0452,-86 2922.0452,-122"/>
<text text-anchor="middle" x="2868" y="-99.8" font-family="Times,serif" font-size="14.00" fill="#000000">CardComponent</text>
</g>
<!-- CardComponent&#45;&gt;AppModule -->
<g id="edge6" class="edge">
<title>CardComponent&#45;&gt;AppModule</title>
<path fill="none" stroke="#000000" d="M2868,-122.1686C2868,-141.0898 2868,-168 2868,-168 2868,-168 2120.8327,-168 2120.8327,-168"/>
<polygon fill="#000000" stroke="#000000" points="2120.8328,-164.5001 2110.8327,-168 2120.8327,-171.5001 2120.8328,-164.5001"/>
</g>
<!-- AppComponent  -->
<g id="node21" class="node">
<title>AppComponent </title>
<polygon fill="#80b1d3" stroke="#000000" points="2123.439,-252 2014.561,-252 2014.561,-216 2123.439,-216 2123.439,-252"/>
<text text-anchor="middle" x="2069" y="-229.8" font-family="Times,serif" font-size="14.00" fill="#000000">AppComponent </text>
</g>
<!-- AppModule&#45;&gt;AppComponent  -->
<g id="edge20" class="edge">
<title>AppModule&#45;&gt;AppComponent </title>
<path fill="none" stroke="#000000" stroke-dasharray="1,5" d="M2069,-187.1061C2069,-187.1061 2069,-205.991 2069,-205.991"/>
<polygon fill="#000000" stroke="#000000" points="2065.5001,-205.9909 2069,-215.991 2072.5001,-205.991 2065.5001,-205.9909"/>
</g>
<!-- MatButtonModule -->
<g id="node8" class="node">
<title>MatButtonModule</title>
<polygon fill="#8dd3c7" stroke="#000000" points="2790.2176,-122 2787.2176,-126 2766.2176,-126 2763.2176,-122 2669.7824,-122 2669.7824,-86 2790.2176,-86 2790.2176,-122"/>
<text text-anchor="middle" x="2730" y="-99.8" font-family="Times,serif" font-size="14.00" fill="#000000">MatButtonModule</text>
</g>
<!-- MatButtonModule&#45;&gt;AppModule -->
<g id="edge7" class="edge">
<title>MatButtonModule&#45;&gt;AppModule</title>
<path fill="none" stroke="#000000" d="M2730,-122.302C2730,-140.2699 2730,-165 2730,-165 2730,-165 2120.85,-165 2120.85,-165"/>
<polygon fill="#000000" stroke="#000000" points="2120.85,-161.5001 2110.85,-165 2120.8499,-168.5001 2120.85,-161.5001"/>
</g>
<!-- MatSliderModule -->
<g id="node9" class="node">
<title>MatSliderModule</title>
<polygon fill="#8dd3c7" stroke="#000000" points="2651.5395,-122 2648.5395,-126 2627.5395,-126 2624.5395,-122 2536.4605,-122 2536.4605,-86 2651.5395,-86 2651.5395,-122"/>
<text text-anchor="middle" x="2594" y="-99.8" font-family="Times,serif" font-size="14.00" fill="#000000">MatSliderModule</text>
</g>
<!-- MatSliderModule&#45;&gt;AppModule -->
<g id="edge8" class="edge">
<title>MatSliderModule&#45;&gt;AppModule</title>
<path fill="none" stroke="#000000" d="M2594,-122.0352C2594,-138.7344 2594,-161 2594,-161 2594,-161 2121.0755,-161 2121.0755,-161"/>
<polygon fill="#000000" stroke="#000000" points="2121.0755,-157.5001 2111.0755,-161 2121.0755,-164.5001 2121.0755,-157.5001"/>
</g>
<!-- MatTabsModule -->
<g id="node10" class="node">
<title>MatTabsModule</title>
<polygon fill="#8dd3c7" stroke="#000000" points="2518.8118,-122 2515.8118,-126 2494.8118,-126 2491.8118,-122 2409.1882,-122 2409.1882,-86 2518.8118,-86 2518.8118,-122"/>
<text text-anchor="middle" x="2464" y="-99.8" font-family="Times,serif" font-size="14.00" fill="#000000">MatTabsModule</text>
</g>
<!-- MatTabsModule&#45;&gt;AppModule -->
<g id="edge9" class="edge">
<title>MatTabsModule&#45;&gt;AppModule</title>
<path fill="none" stroke="#000000" d="M2464,-122.2819C2464,-137.9478 2464,-158 2464,-158 2464,-158 2120.898,-158 2120.898,-158"/>
<polygon fill="#000000" stroke="#000000" points="2120.898,-154.5001 2110.898,-158 2120.8979,-161.5001 2120.898,-154.5001"/>
</g>
<!-- MatCheckboxModule -->
<g id="node11" class="node">
<title>MatCheckboxModule</title>
<polygon fill="#8dd3c7" stroke="#000000" points="2391.3655,-122 2388.3655,-126 2367.3655,-126 2364.3655,-122 2252.6345,-122 2252.6345,-86 2391.3655,-86 2391.3655,-122"/>
<text text-anchor="middle" x="2322" y="-99.8" font-family="Times,serif" font-size="14.00" fill="#000000">MatCheckboxModule</text>
</g>
<!-- MatCheckboxModule&#45;&gt;AppModule -->
<g id="edge10" class="edge">
<title>MatCheckboxModule&#45;&gt;AppModule</title>
<path fill="none" stroke="#000000" d="M2322,-122.1243C2322,-136.7832 2322,-155 2322,-155 2322,-155 2120.7778,-155 2120.7778,-155"/>
<polygon fill="#000000" stroke="#000000" points="2120.7778,-151.5001 2110.7778,-155 2120.7778,-158.5001 2120.7778,-151.5001"/>
</g>
<!-- MatProgressSpinnerModule -->
<g id="node12" class="node">
<title>MatProgressSpinnerModule</title>
<polygon fill="#8dd3c7" stroke="#000000" points="2234.8557,-122 2231.8557,-126 2210.8557,-126 2207.8557,-122 2061.1443,-122 2061.1443,-86 2234.8557,-86 2234.8557,-122"/>
<text text-anchor="middle" x="2148" y="-99.8" font-family="Times,serif" font-size="14.00" fill="#000000">MatProgressSpinnerModule</text>
</g>
<!-- MatProgressSpinnerModule&#45;&gt;AppModule -->
<g id="edge11" class="edge">
<title>MatProgressSpinnerModule&#45;&gt;AppModule</title>
<path fill="none" stroke="#000000" d="M2085.9502,-122.1061C2085.9502,-122.1061 2085.9502,-140.991 2085.9502,-140.991"/>
<polygon fill="#000000" stroke="#000000" points="2082.4503,-140.9909 2085.9502,-150.991 2089.4503,-140.991 2082.4503,-140.9909"/>
</g>
<!-- BrowserModule -->
<g id="node13" class="node">
<title>BrowserModule</title>
<polygon fill="#8dd3c7" stroke="#000000" points="2043.4734,-122 2040.4734,-126 2019.4734,-126 2016.4734,-122 1936.5266,-122 1936.5266,-86 2043.4734,-86 2043.4734,-122"/>
<text text-anchor="middle" x="1990" y="-99.8" font-family="Times,serif" font-size="14.00" fill="#000000">BrowserModule</text>
</g>
<!-- BrowserModule&#45;&gt;AppModule -->
<g id="edge12" class="edge">
<title>BrowserModule&#45;&gt;AppModule</title>
<path fill="none" stroke="#000000" d="M2035.3293,-122.1061C2035.3293,-122.1061 2035.3293,-140.991 2035.3293,-140.991"/>
<polygon fill="#000000" stroke="#000000" points="2031.8293,-140.9909 2035.3293,-150.991 2038.8293,-140.991 2031.8293,-140.9909"/>
</g>
<!-- BrowserAnimationsModule -->
<g id="node14" class="node">
<title>BrowserAnimationsModule</title>
<polygon fill="#8dd3c7" stroke="#000000" points="1918.3019,-122 1915.3019,-126 1894.3019,-126 1891.3019,-122 1745.6981,-122 1745.6981,-86 1918.3019,-86 1918.3019,-122"/>
<text text-anchor="middle" x="1832" y="-99.8" font-family="Times,serif" font-size="14.00" fill="#000000">BrowserAnimationsModule</text>
</g>
<!-- BrowserAnimationsModule&#45;&gt;AppModule -->
<g id="edge13" class="edge">
<title>BrowserAnimationsModule&#45;&gt;AppModule</title>
<path fill="none" stroke="#000000" d="M1832,-122.1243C1832,-136.7832 1832,-155 1832,-155 1832,-155 2017.1747,-155 2017.1747,-155"/>
<polygon fill="#000000" stroke="#000000" points="2017.1747,-158.5001 2027.1747,-155 2017.1747,-151.5001 2017.1747,-158.5001"/>
</g>
<!-- MatIconModule -->
<g id="node15" class="node">
<title>MatIconModule</title>
<polygon fill="#8dd3c7" stroke="#000000" points="1727.4748,-122 1724.4748,-126 1703.4748,-126 1700.4748,-122 1620.5252,-122 1620.5252,-86 1727.4748,-86 1727.4748,-122"/>
<text text-anchor="middle" x="1674" y="-99.8" font-family="Times,serif" font-size="14.00" fill="#000000">MatIconModule</text>
</g>
<!-- MatIconModule&#45;&gt;AppModule -->
<g id="edge14" class="edge">
<title>MatIconModule&#45;&gt;AppModule</title>
<path fill="none" stroke="#000000" d="M1674,-122.2819C1674,-137.9478 1674,-158 1674,-158 1674,-158 2017.102,-158 2017.102,-158"/>
<polygon fill="#000000" stroke="#000000" points="2017.1021,-161.5001 2027.102,-158 2017.102,-154.5001 2017.1021,-161.5001"/>
</g>
<!-- MatCardModule -->
<g id="node16" class="node">
<title>MatCardModule</title>
<polygon fill="#8dd3c7" stroke="#000000" points="1602.8118,-122 1599.8118,-126 1578.8118,-126 1575.8118,-122 1493.1882,-122 1493.1882,-86 1602.8118,-86 1602.8118,-122"/>
<text text-anchor="middle" x="1548" y="-99.8" font-family="Times,serif" font-size="14.00" fill="#000000">MatCardModule</text>
</g>
<!-- MatCardModule&#45;&gt;AppModule -->
<g id="edge15" class="edge">
<title>MatCardModule&#45;&gt;AppModule</title>
<path fill="none" stroke="#000000" d="M1548,-122.0352C1548,-138.7344 1548,-161 1548,-161 1548,-161 2017.2451,-161 2017.2451,-161"/>
<polygon fill="#000000" stroke="#000000" points="2017.2451,-164.5001 2027.2451,-161 2017.245,-157.5001 2017.2451,-164.5001"/>
</g>
<!-- SwiperModule -->
<g id="node17" class="node">
<title>SwiperModule</title>
<polygon fill="#8dd3c7" stroke="#000000" points="1475.705,-122 1472.705,-126 1451.705,-126 1448.705,-122 1376.295,-122 1376.295,-86 1475.705,-86 1475.705,-122"/>
<text text-anchor="middle" x="1426" y="-99.8" font-family="Times,serif" font-size="14.00" fill="#000000">SwiperModule</text>
</g>
<!-- SwiperModule&#45;&gt;AppModule -->
<g id="edge16" class="edge">
<title>SwiperModule&#45;&gt;AppModule</title>
<path fill="none" stroke="#000000" d="M1426,-122.302C1426,-140.2699 1426,-165 1426,-165 1426,-165 2017.3064,-165 2017.3064,-165"/>
<polygon fill="#000000" stroke="#000000" points="2017.3064,-168.5001 2027.3064,-165 2017.3064,-161.5001 2017.3064,-168.5001"/>
</g>
<!-- FormsModule -->
<g id="node18" class="node">
<title>FormsModule</title>
<polygon fill="#8dd3c7" stroke="#000000" points="1358.8288,-122 1355.8288,-126 1334.8288,-126 1331.8288,-122 1263.1712,-122 1263.1712,-86 1358.8288,-86 1358.8288,-122"/>
<text text-anchor="middle" x="1311" y="-99.8" font-family="Times,serif" font-size="14.00" fill="#000000">FormsModule</text>
</g>
<!-- FormsModule&#45;&gt;AppModule -->
<g id="edge17" class="edge">
<title>FormsModule&#45;&gt;AppModule</title>
<path fill="none" stroke="#000000" d="M1311,-122.1686C1311,-141.0898 1311,-168 1311,-168 1311,-168 2017.1669,-168 2017.1669,-168"/>
<polygon fill="#000000" stroke="#000000" points="2017.167,-171.5001 2027.1669,-168 2017.1669,-164.5001 2017.167,-171.5001"/>
</g>
<!-- FontAwesomeModule -->
<g id="node19" class="node">
<title>FontAwesomeModule</title>
<polygon fill="#8dd3c7" stroke="#000000" points="1245.7007,-122 1242.7007,-126 1221.7007,-126 1218.7007,-122 1104.2993,-122 1104.2993,-86 1245.7007,-86 1245.7007,-122"/>
<text text-anchor="middle" x="1175" y="-99.8" font-family="Times,serif" font-size="14.00" fill="#000000">FontAwesomeModule</text>
</g>
<!-- FontAwesomeModule&#45;&gt;AppModule -->
<g id="edge18" class="edge">
<title>FontAwesomeModule&#45;&gt;AppModule</title>
<path fill="none" stroke="#000000" d="M1175,-122.308C1175,-142.1455 1175,-171 1175,-171 1175,-171 2017.0796,-171 2017.0796,-171"/>
<polygon fill="#000000" stroke="#000000" points="2017.0797,-174.5001 2027.0796,-171 2017.0796,-167.5001 2017.0797,-174.5001"/>
</g>
<!-- HttpClientModule -->
<g id="node20" class="node">
<title>HttpClientModule</title>
<polygon fill="#8dd3c7" stroke="#000000" points="1086.1611,-122 1083.1611,-126 1062.1611,-126 1059.1611,-122 967.8389,-122 967.8389,-86 1086.1611,-86 1086.1611,-122"/>
<text text-anchor="middle" x="1027" y="-99.8" font-family="Times,serif" font-size="14.00" fill="#000000">HttpClientModule</text>
</g>
<!-- HttpClientModule&#45;&gt;AppModule -->
<g id="edge19" class="edge">
<title>HttpClientModule&#45;&gt;AppModule</title>
<path fill="none" stroke="#000000" d="M1027,-122.0267C1027,-142.7672 1027,-174 1027,-174 1027,-174 2017.1861,-174 2017.1861,-174"/>
<polygon fill="#000000" stroke="#000000" points="2017.1862,-177.5001 2027.1861,-174 2017.1861,-170.5001 2017.1862,-177.5001"/>
</g>
<!-- { provide: SWIPER_CONFIG, useValue: DEFAULT_SWIPER_CONFIG } -->
<g id="node22" class="node">
<title>{ provide: SWIPER_CONFIG, useValue: DEFAULT_SWIPER_CONFIG }</title>
<ellipse fill="#fdb462" stroke="#000000" cx="637" cy="-104" rx="306.9761" ry="18"/>
<text text-anchor="middle" x="637" y="-99.8" font-family="Times,serif" font-size="14.00" fill="#000000">{ provide: SWIPER_CONFIG, useValue: DEFAULT_SWIPER_CONFIG }</text>
</g>
<!-- { provide: SWIPER_CONFIG, useValue: DEFAULT_SWIPER_CONFIG }&#45;&gt;AppModule -->
<g id="edge21" class="edge">
<title>{ provide: SWIPER_CONFIG, useValue: DEFAULT_SWIPER_CONFIG }&#45;&gt;AppModule</title>
<path fill="none" stroke="#000000" d="M637,-122.2921C637,-144.2057 637,-178 637,-178 637,-178 2017.3037,-178 2017.3037,-178"/>
<polygon fill="#000000" stroke="#000000" points="2017.3038,-181.5001 2027.3037,-178 2017.3037,-174.5001 2017.3038,-181.5001"/>
</g>
<!-- FilterService -->
<g id="node23" class="node">
<title>FilterService</title>
<ellipse fill="#fdb462" stroke="#000000" cx="251" cy="-104" rx="60.8255" ry="18"/>
<text text-anchor="middle" x="251" y="-99.8" font-family="Times,serif" font-size="14.00" fill="#000000">FilterService</text>
</g>
<!-- FilterService&#45;&gt;AppModule -->
<g id="edge22" class="edge">
<title>FilterService&#45;&gt;AppModule</title>
<path fill="none" stroke="#000000" d="M251,-122.2479C251,-145.0179 251,-181 251,-181 251,-181 2017.1761,-181 2017.1761,-181"/>
<polygon fill="#000000" stroke="#000000" points="2017.1762,-184.5001 2027.1761,-181 2017.1761,-177.5001 2017.1762,-184.5001"/>
</g>
<!-- BackendService -->
<g id="node24" class="node">
<title>BackendService</title>
<ellipse fill="#fdb462" stroke="#000000" cx="98" cy="-104" rx="73.556" ry="18"/>
<text text-anchor="middle" x="98" y="-99.8" font-family="Times,serif" font-size="14.00" fill="#000000">BackendService</text>
</g>
<!-- BackendService&#45;&gt;AppModule -->
<g id="edge23" class="edge">
<title>BackendService&#45;&gt;AppModule</title>
<path fill="none" stroke="#000000" d="M98,-122.1532C98,-145.7566 98,-184 98,-184 98,-184 2016.921,-184 2016.921,-184"/>
<polygon fill="#000000" stroke="#000000" points="2016.921,-187.5001 2026.921,-184 2016.921,-180.5001 2016.921,-187.5001"/>
</g>
</g>
</svg>
